<?xml version="1.0" encoding="UTF-8" standalone="no"?>
<!-- Created with Inkscape (http://www.inkscape.org/) -->

<svg
   width="200mm"
   height="94.325851mm"
   viewBox="0 0 200 94.325851"
   version="1.1"
   id="svg1"
   inkscape:version="1.3.2 (091e20e, 2023-11-25, custom)"
   sodipodi:docname="infinity.svg"
   xmlns:inkscape="http://www.inkscape.org/namespaces/inkscape"
   xmlns:sodipodi="http://sodipodi.sourceforge.net/DTD/sodipodi-0.dtd"
   xmlns="http://www.w3.org/2000/svg"
   xmlns:svg="http://www.w3.org/2000/svg"
   xmlns:rdf="http://www.w3.org/1999/02/22-rdf-syntax-ns#"
   xmlns:cc="http://creativecommons.org/ns#">
  <sodipodi:namedview
     id="namedview1"
     pagecolor="#ffffff"
     bordercolor="#111111"
     borderopacity="1"
     inkscape:showpageshadow="0"
     inkscape:pageopacity="0"
     inkscape:pagecheckerboard="1"
     inkscape:deskcolor="#d1d1d1"
     inkscape:document-units="mm"
     inkscape:zoom="0.51316815"
     inkscape:cx="305.94261"
     inkscape:cy="236.7645"
     inkscape:window-width="1366"
     inkscape:window-height="705"
     inkscape:window-x="-8"
     inkscape:window-y="-8"
     inkscape:window-maximized="1"
     inkscape:current-layer="layer1" />
  <defs
     id="defs1" />
  <g
     inkscape:label="Layer 1"
     inkscape:groupmode="layer"
     id="layer1"
     transform="translate(1.2819695e-6,-52.837072)">
    <g
       id="g9"
       transform="translate(-43.096767,156.58692)"
       inkscape:label="useless"
       style="display:none">
      <path
         id="path6"
         style="fill:#ff0000;fill-opacity:0;stroke:#000000;stroke-width:1;stroke-dasharray:none"
         d="m 101.93902,68.713673 -7.611548,-7.611685 c -3.87e-4,-5.03e-4 -0.0012,-7.35e-4 -0.0015,-0.0013 -1.947712,-1.947154 -4.638219,-3.151461 -7.610037,-3.151461 -2.97252,-3e-6 -5.663571,1.204818 -7.61155,3.152803 -1.947983,1.947984 -3.152938,4.639166 -3.152943,7.611684 2e-6,2.972522 1.20496,5.663568 3.152941,7.61155 1.947983,1.947981 4.639032,3.152803 7.611554,3.152803 2.972482,0 5.663573,-1.204728 7.61155,-3.152671 z" />
      <path
         id="path7"
         style="fill:#ff0000;fill-opacity:0;stroke:#000000;stroke-width:1;stroke-dasharray:none"
         d="m 105.35238,68.713679 -9.627103,-9.627274 c -4.9e-4,-6.35e-4 -0.0015,-9.3e-4 -0.0018,-0.0016 -2.46347,-2.462765 -5.866428,-3.985974 -9.62519,-3.985974 -3.759648,-3e-6 -7.163294,1.523856 -9.627102,3.987671 -2.463813,2.463814 -3.987842,5.867627 -3.987849,9.627274 2e-6,3.75965 1.524036,7.16329 3.987847,9.627102 2.463812,2.46381 5.867456,3.987671 9.627108,3.987671 3.759601,0 7.163298,-1.523742 9.627102,-3.987505 z" />
      <path
         id="path8"
         style="fill:#ff0000;fill-opacity:0;stroke:#000000;stroke-width:1;stroke-dasharray:none"
         d="M 109.30964,68.713676 97.349732,56.75356 c -6.09e-4,-7.89e-4 -0.0019,-0.0012 -0.0022,-0.002 -3.060408,-3.059533 -7.287957,-4.95184 -11.957527,-4.95184 -4.670671,-3e-6 -8.899075,1.893111 -11.959903,4.953948 -3.060834,3.060835 -4.95416,7.289446 -4.954168,11.960116 2e-6,4.670673 1.893334,8.899069 4.954166,11.959902 3.060833,3.060831 7.289234,4.953948 11.95991,4.953948 4.670612,0 8.899079,-1.892969 11.959902,-4.953742 z" />
      <path
         id="path9"
         style="fill:#ff0000;fill-opacity:0;stroke:#000000;stroke-width:1;stroke-dasharray:none"
         d="M 113.28623,68.713676 98.985017,54.412212 c -7.28e-4,-9.43e-4 -0.0023,-0.0014 -0.0026,-0.0024 -3.659523,-3.658476 -8.714669,-5.921227 -14.298368,-5.921227 -5.585015,-3e-6 -10.641184,2.263712 -14.301208,5.923748 -3.660032,3.660033 -5.924001,8.716449 -5.924011,14.301463 2e-6,5.585018 2.263979,10.641177 5.924008,14.301207 3.660031,3.660029 8.716196,5.923748 14.301217,5.923748 5.584945,0 10.641189,-2.263542 14.301208,-5.923501 z" />
    </g>
    <g
       id="g39"
       transform="matrix(2.3050659,0,0,2.3050659,-87.164721,6.6559276)">
      <path
         d="m 83.090019,36.714555 8.105448,-7.914763 c 6.09e-4,-7.88e-4 0.0018,-0.0013 0.0021,-0.0021 3.060402,-3.059527 7.287845,-4.952152 11.957403,-4.952152 4.67066,-3e-6 8.89917,1.893389 11.96,4.954219 3.00228,3.002283 4.86999,7.130936 4.94078,11.695411 v 0 0 c -0.0708,4.564501 -1.93848,8.693112 -4.94078,11.69541 -3.06083,3.060825 -7.28933,4.953703 -11.96,4.953703 -4.670595,0 -8.898653,-1.892936 -11.95947,-4.953703 l -8.134387,-7.885824 -1.863969,1.863969 8.362797,8.363314 c 3.660011,3.659951 8.715997,5.923669 14.300929,5.923669 5.58501,0 10.64144,-2.263648 14.30146,-5.923669 3.60187,-3.601869 5.84688,-8.557356 5.91746,-14.036869 -0.0706,-5.479518 -2.31559,-10.434998 -5.91746,-14.03687 -3.66002,-3.660028 -8.71645,-5.923672 -14.30146,-5.923669 -5.58368,0 -10.63883,2.262617 -14.298345,5.921086 -3e-4,0.001 -0.0019,0.0016 -0.0026,0.0026 l -8.362814,8.36333"
         style="fill:none;fill-opacity:0;stroke:#000000"
         id="path10"
         sodipodi:nodetypes="cccssscsssccccsscssccc" />
      <path
         d="m 75.523556,40.495203 -7.346839,-7.347356 c -3.87e-4,-5.03e-4 -0.0012,-4.68e-4 -0.0015,-10e-4 -1.947708,-1.947149 -4.638576,-3.151746 -7.610388,-3.151746 -2.972514,-4e-6 -5.663447,1.204799 -7.611422,3.152779 -1.889447,1.889448 -3.069507,4.480964 -3.139343,7.347356 0.06983,2.866387 1.249897,5.457392 3.139343,7.346838 1.947978,1.947977 4.638905,3.152779 7.611422,3.152779 2.972473,0 5.663965,-1.20484 7.611938,-3.152779 z"
         style="fill:none;fill-opacity:0;stroke:#000000"
         id="path27" />
      <path
         d="m 79.333142,44.304789 -8.134387,7.885824 c -3.060817,3.060767 -7.288875,4.953703 -11.959477,4.953703 -4.670665,0 -8.899166,-1.892878 -11.959993,-4.953703 -3.002299,-3.002298 -4.870012,-7.130909 -4.940784,-11.69541 v 0 0 c 0.07079,-4.564475 1.938502,-8.693128 4.940784,-11.695411 3.060822,-3.06083 7.289332,-4.954222 11.959993,-4.954219 4.66956,0 8.897008,1.892625 11.95741,4.952152 3e-4,8e-4 0.0015,0.0013 0.0021,0.0021 l 8.105448,7.914763 1.892908,-1.892908 -8.362797,-8.363314 c -7.28e-4,-9.43e-4 -0.0028,-0.0016 -0.0031,-0.0026 C 69.171732,22.797297 64.116583,20.53468 58.532895,20.53468 l -3.4e-5,-1.6e-5 c -5.585003,-3e-6 -10.640919,2.263641 -14.300936,5.923669 -3.60187,3.601872 -5.846873,8.557352 -5.917468,14.03687 0.07059,5.479513 2.315596,10.435 5.917468,14.036869 3.660017,3.660021 8.715932,5.923669 14.300936,5.923669 5.584939,0 10.641442,-2.263718 14.301453,-5.923669 l 8.362797,-8.363314"
         style="fill:none;fill-opacity:0;stroke:#000000"
         id="path5"
         sodipodi:nodetypes="ccssscsssccccccccscsscc" />
      <path
         d="m 77.343599,42.315247 -7.769034,7.542692 c -2.4638,2.463758 -5.867725,3.987353 -9.62732,3.987353 -3.759646,0 -7.162995,-1.523548 -9.626802,-3.987353 -2.405276,-2.405276 -3.904065,-5.709246 -3.974435,-9.362736 v 0 0 c 0.07038,-3.653496 1.569159,-6.957459 3.974435,-9.362736 2.463803,-2.463811 5.867162,-3.987357 9.626802,-3.987354 3.758755,0 7.161787,1.523043 9.625253,3.985803 3e-4,6.7e-4 0.0016,9.16e-4 0.0021,0.0016 l 7.736478,7.575248 1.99316,-1.99316 -8.105448,-7.914763 c -6.09e-4,-7.88e-4 -0.0018,-0.0013 -0.0021,-0.0021 -3.060402,-3.059527 -7.28785,-4.952152 -11.95741,-4.952152 -4.670661,-3e-6 -8.899171,1.893389 -11.959993,4.954219 -3.002282,3.002283 -4.869993,7.130936 -4.940784,11.695411 0.07077,4.564501 1.938485,8.693112 4.940784,11.69541 3.060827,3.060825 7.289328,4.953703 11.959993,4.953703 4.670602,0 8.89866,-1.892936 11.959477,-4.953703 l 8.134387,-7.88584"
         style="fill:#ff0000;fill-opacity:0;stroke:#000000"
         id="path19"
         sodipodi:nodetypes="ccssscsssccccccsscsscc" />
      <path
         d="m 86.870667,40.495203 7.346838,7.346838 c 1.947973,1.947939 4.639465,3.152779 7.611935,3.152779 2.97252,0 5.66345,-1.204802 7.61143,-3.152779 1.88944,-1.889446 3.06951,-4.480451 3.13934,-7.346838 -0.0698,-2.866392 -1.24989,-5.457908 -3.13934,-7.347356 -1.94797,-1.94798 -4.63892,-3.152783 -7.61143,-3.152779 -2.971814,0 -5.662677,1.204597 -7.610385,3.151746 -3e-4,5.65e-4 -0.0012,5.3e-4 -0.0015,10e-4 z"
         style="fill:none;fill-opacity:0;stroke:#000000"
         id="path16" />
      <path
         d="m 85.083179,38.707715 7.736478,-7.575248 c 4.9e-4,-6.35e-4 0.0018,-8.81e-4 0.0021,-0.0016 2.463466,-2.46276 5.866501,-3.985803 9.625253,-3.985803 3.75964,-3e-6 7.16299,1.523543 9.6268,3.987354 2.40527,2.405277 3.90406,5.70924 3.97443,9.362736 v 0 0 c -0.0704,3.65349 -1.56916,6.95746 -3.97443,9.362736 -2.46381,2.463805 -5.86716,3.987353 -9.6268,3.987353 -3.759595,0 -7.16352,-1.523595 -9.62732,-3.987353 l -7.769034,-7.542692 -1.989543,1.989542 8.134387,7.885824 c 3.060817,3.060767 7.288875,4.953703 11.95947,4.953703 4.67067,0 8.89917,-1.892878 11.96,-4.953703 3.0023,-3.002298 4.87001,-7.130909 4.94078,-11.69541 -0.0708,-4.564475 -1.9385,-8.693128 -4.94078,-11.695411 -3.06083,-3.06083 -7.28934,-4.954222 -11.96,-4.954219 -4.669558,0 -8.897001,1.892625 -11.957403,4.952152 -3e-4,8e-4 -0.0015,0.0013 -0.0021,0.0021 l -8.105448,7.914779"
         style="fill:none;fill-opacity:0;stroke:#000000"
         id="path12"
         sodipodi:nodetypes="cccssscsssccccsscssccc" />
      <path
         style="fill:#ff0000;fill-opacity:1;stroke:#000000;stroke-width:1;stroke-opacity:1"
         d="m 75.523555,40.495204 1.787519,-1.787441 v 0"
         id="path29" />
      <path
         style="fill:#ff0000;fill-opacity:1;stroke:#000000;stroke-width:1;stroke-opacity:1"
         d="m 85.050655,42.315198 1.820011,-1.819994 v 0"
         id="path30" />
      <path
         style="fill:#ff0000;fill-opacity:1;stroke:#000000;stroke-width:1;stroke-opacity:1"
         d="m 77.343597,42.315246 5.746422,-5.600692"
         id="path31" />
      <path
         style="fill:#ff0000;fill-opacity:1;stroke:#000000;stroke-width:1;stroke-opacity:1"
         d="m 79.333142,44.304788 5.750036,-5.597072"
         id="path32" />
      <path
         style="fill:#ff0000;fill-opacity:1;stroke:#ff0000;stroke-width:1.88976;stroke-dasharray:none;stroke-opacity:1"
         d="m 216.79054,226.21838 c -9.543,-0.89337 -17.05633,-2.6652 -24.35849,-5.74435 -19.66262,-8.29127 -35.36859,-25.42318 -41.78631,-45.58009 -2.751,-8.64038 -3.26431,-12.0808 -3.27088,-21.92264 -0.005,-7.671 0.16254,-9.76544 1.12626,-14.0697 6.56701,-29.33021 28.35658,-51.08802 57.68353,-57.599445 7.12228,-1.581351 19.38524,-1.803502 27.08192,-0.490606 7.46208,1.272877 14.9246,3.721215 21.40602,7.022989 9.40027,4.788696 12.65773,7.500108 31.53964,26.252652 l 17.53811,17.41795 -2.03826,2.04645 -2.03827,2.04645 -16.26223,-15.85326 c -17.45503,-17.01605 -22.18014,-20.926244 -29.83972,-24.693424 -9.60651,-4.724727 -16.18568,-6.345888 -27.29923,-6.726743 -9.13086,-0.31291 -14.95219,0.419169 -22.48328,2.827455 -22.85052,7.307123 -39.36278,25.682602 -44.60664,49.639992 -1.34062,6.12485 -1.4381,17.30978 -0.20495,23.51563 4.08116,20.53842 16.94614,37.58569 35.36433,46.86094 15.39067,7.75061 34.821,8.9727 51.38012,3.2316 9.20169,-3.19026 16.95202,-8.07507 25.07598,-15.80468 7.14576,-6.79889 51.11998,-49.54964 70.32461,-68.368 18.5332,-18.16044 22.82455,-21.13348 34.8227,-24.12507 5.75973,-1.43612 16.11142,-1.53842 21.82861,-0.21572 20.15723,4.66347 35.41424,21.31854 38.25646,41.76209 1.02434,7.36783 -0.51326,17.15019 -3.85364,24.51725 -3.50085,7.72095 -10.81757,16.34767 -17.74575,20.92298 -7.88934,5.21006 -15.50363,7.59248 -25.42613,7.95552 -8.06758,0.29518 -13.58693,-0.6261 -20.40569,-3.40609 -7.55219,-3.07899 -11.48586,-6.17658 -27.09336,-21.33483 -7.90433,-7.67681 -14.90925,-14.5392 -15.56649,-15.24974 l -1.19498,-1.29191 1.79915,-1.79915 1.79915,-1.79915 14.98526,14.87931 c 8.41107,8.35159 16.2236,15.68373 17.80794,16.71292 3.7668,2.44694 8.45801,4.53391 12.96485,5.76765 5.28287,1.44618 16.24358,1.44618 21.52646,0 15.25564,-4.17621 26.85666,-15.7889 30.57953,-30.61028 1.38922,-5.53072 1.6909,-9.60986 1.05372,-14.24766 -1.96466,-14.2999 -9.95284,-25.81797 -22.4962,-32.437 -5.12121,-2.70243 -9.52854,-4.05096 -15.36742,-4.70203 -10.18676,-1.13589 -21.17679,1.73137 -29.62211,7.72831 -1.33971,0.95132 -22.60467,21.82661 -47.25546,46.38954 -48.47736,48.30458 -47.62491,47.53159 -58.36709,52.92663 -11.1012,5.57536 -26.28841,8.6839 -37.36177,7.64726 z"
         id="path37"
         transform="scale(0.26458333)" />
      <path
         style="fill:#ffff00;fill-opacity:1;stroke:#ffff00;stroke-width:0.922205;stroke-dasharray:none;stroke-opacity:1"
         d="m 214.84186,213.15346 c -23.45512,-3.90716 -42.00008,-19.55582 -49.40685,-41.69062 -6.44608,-19.26383 -2.70501,-39.407 10.4027,-56.01164 15.66564,-19.844994 42.75266,-27.979406 67.01641,-20.125478 5.01023,1.621757 11.64172,4.925268 16.29331,8.116578 3.06823,2.10502 25.26839,23.07883 34.84018,32.91559 l 2.41651,2.48341 -2.16038,2.20127 -2.16039,2.20127 -9.26876,-9.15916 c -18.39461,-18.17707 -22.41236,-21.8922 -26.69305,-24.68249 -7.67506,-5.00286 -14.84188,-7.57437 -23.97358,-8.60191 -25.5353,-2.87336 -49.78824,13.44904 -57.02103,38.37555 -1.79623,6.19039 -2.43129,13.25528 -1.70802,19.00141 1.87557,14.90073 9.26697,27.87767 20.92692,36.74098 4.44517,3.379 12.97901,7.48821 18.79094,9.04821 4.40858,1.18332 5.68215,1.30763 13.39717,1.30763 7.67852,0 9.00944,-0.1285 13.39716,-1.29344 5.79928,-1.53972 14.3099,-5.62612 18.78971,-9.02192 3.06519,-2.32349 18.89729,-17.54425 60.1318,-57.80988 34.46177,-33.65205 34.78966,-33.94068 43.57675,-38.360825 3.7414,-1.882023 10.60512,-4.285284 14.88362,-5.211343 20.24556,-4.382056 42.08177,2.389877 56.89992,17.646038 11.11848,11.44713 17.15855,26.26627 17.11541,41.9922 -0.0339,12.35698 -3.17618,22.48486 -10.35374,33.37113 -3.41453,5.17884 -11.2695,13.0681 -16.40613,16.47776 -21.45449,14.24136 -48.15636,14.27428 -69.1781,0.0853 -4.42069,-2.98383 -7.36463,-5.66615 -24.25818,-22.1025 l -14.02761,-13.64798 2.21314,-2.21314 2.21314,-2.21314 5.72485,5.61547 c 26.07591,25.57769 28.64909,27.8163 36.23179,31.52084 8.25485,4.03291 16.9923,5.79233 26.46313,5.32873 18.50051,-0.9056 34.47873,-10.71681 43.79157,-26.88963 6.7678,-11.75304 8.56955,-25.03694 5.19076,-38.27032 -4.00596,-15.68981 -15.59,-29.07947 -30.73298,-35.52339 -17.31214,-7.366971 -37.96271,-4.931683 -52.85133,6.23268 -2.12061,1.59015 -11.65803,10.53934 -21.19428,19.88709 -18.90164,18.52801 -61.67255,60.0556 -67.97785,66.00178 -8.29824,7.8256 -18.06564,12.99943 -29.41199,15.57962 -5.58847,1.27083 -16.41532,1.61569 -21.92264,0.69828 z"
         id="path38"
         transform="scale(0.26458333)" />
      <path
         style="fill:#00ffff;fill-opacity:1;stroke:#00ffff;stroke-width:1.88976;stroke-dasharray:none;stroke-opacity:1"
         d="m 385.59486,226.02851 c -12.93116,-1.45097 -23.93949,-5.45715 -34.85563,-12.68473 -3.77836,-2.50165 -7.8412,-6.26832 -22.6304,-20.98074 l -18.02528,-17.93169 1.94868,-1.93136 1.94868,-1.93136 16.0766,15.59582 c 8.84213,8.5777 17.94003,17.0145 20.21754,18.74845 7.66163,5.83303 17.77209,10.22852 28.01227,12.17824 5.91567,1.12634 16.96346,1.13131 23.14056,0.0104 13.08672,-2.37472 25.36308,-8.69648 34.57232,-17.80315 5.05847,-5.00213 7.79596,-8.53625 11.16694,-14.4166 6.01363,-10.4902 9.43527,-24.57728 8.5791,-35.32069 -2.18484,-27.41591 -19.49919,-49.69669 -45.232,-58.206312 -6.7214,-2.222708 -12.88536,-3.177455 -20.49891,-3.175113 -15.7262,0.0048 -29.59277,4.770933 -41.36249,14.216755 -1.64259,1.31827 -15.04834,14.1714 -29.79055,28.56251 -50.00597,48.81503 -58.73677,57.24551 -62.01609,59.88286 -3.98297,3.20328 -12.60091,7.52904 -17.88943,8.97959 -3.26902,0.89663 -5.23259,1.07439 -12.17925,1.10255 -7.19653,0.0292 -8.82456,-0.11378 -12.42283,-1.09082 -17.46094,-4.74117 -30.82096,-18.24888 -35.6644,-36.05863 -1.48387,-5.45632 -1.48196,-15.2769 0.004,-21.21622 4.44391,-17.76061 17.95177,-31.52087 35.55898,-36.22342 4.05555,-1.08316 5.77059,-1.26714 12.03695,-1.29124 8.10227,-0.0312 12.85134,0.84376 19.3104,3.55758 8.18499,3.43897 11.08908,5.83961 31.49397,26.03431 l 11.83079,11.70892 -1.71344,1.71344 -1.71345,1.71345 -14.50187,-14.39775 c -8.22741,-8.16834 -15.84626,-15.30119 -17.6091,-16.48583 -7.7537,-5.21053 -15.42772,-7.50587 -24.90503,-7.44923 -7.323,0.0438 -11.79273,1.06908 -18.26887,4.19069 -13.03708,6.28409 -21.77184,18.42593 -23.70595,32.95271 -1.06044,7.96482 0.92993,17.09152 5.49619,25.20241 4.19182,7.44579 13.18333,15.10981 21.37636,18.22041 12.72324,4.83056 27.5054,3.29553 38.8316,-4.03242 3.07765,-1.99121 12.18284,-10.81871 48.1282,-46.66037 24.38694,-24.31659 45.84199,-45.312673 47.68766,-46.667543 10.46276,-7.680473 22.64035,-12.624226 35.23395,-14.303968 2.65986,-0.354773 7.23439,-0.465847 12.0765,-0.293228 11.84516,0.422277 19.6229,2.393264 30.20452,7.654247 24.18027,12.021972 40.0422,36.308002 41.03876,62.834002 1.09389,29.11665 -16.59135,57.14313 -43.68219,69.2248 -11.62348,5.18372 -25.77629,7.56181 -37.30449,6.26826 z"
         id="path39"
         transform="scale(0.26458333)" />
    </g>
  </g>
  <metadata
     id="metadata1">
    <rdf:RDF>
      <cc:Work
         rdf:about="" />
    </rdf:RDF>
  </metadata>
</svg>
